<svg xmlns="http://www.w3.org/2000/svg" aria-hidden="true" style="position:absolute;width:0;height:0;overflow:hidden">
    <defs>
        <symbol id="icon-Left-Side" viewBox="0 0 77 32">
            <path d="M11.522 30.017c7.168 0 11.426-5.605 11.426-15.098 0-3.574-.684-6.582-1.992-8.906C19.061 2.4 15.8.447 11.679.447 5.546.447 1.21 4.568 1.21 10.349c0 5.43 3.906 9.375 9.277 9.375 3.301 0 5.977-1.543 7.305-4.219H18.125c0 6.445-2.441 10.293-6.563 10.293-2.422 0-4.297-1.328-4.941-3.457h-5.02c.84 4.629 4.766 7.676 9.922 7.676zm.176-14.297c-3.242 0-5.547-2.305-5.547-5.527 0-3.145 2.422-5.547 5.566-5.547s5.566 2.441 5.566 5.625c0 3.145-2.363 5.449-5.586 5.449zM31.191 29.743c1.855 0 3.125-1.328 3.125-3.086 0-1.777-1.27-3.086-3.125-3.086-1.836 0-3.125 1.309-3.125 3.086 0 1.758 1.289 3.086 3.125 3.086zm0-14.648c1.855 0 3.125-1.309 3.125-3.066 0-1.777-1.27-3.086-3.125-3.086-1.836 0-3.125 1.309-3.125 3.086 0 1.758 1.289 3.066 3.125 3.066zM52.598 29.333h4.824v-5.254h3.809v-4.258h-3.809V1.149h-7.109c-4.981 7.5-8.945 13.77-11.485 18.438v4.492h13.77v5.254zm-9.102-9.687c3.281-5.781 6.211-10.41 8.906-14.395h.273v14.688h-9.18v-.293zM71.974 29.333h5.039V1.149h-5.019l-7.363 5.156v4.844l7.012-4.922h.332v23.105z"/>
        </symbol>
        <symbol id="icon-Notch" viewBox="0 0 250 32">
            <path fill="#e5e5e5" d="M0 0h250.286v32H0V0z" style="fill:var(--color1, #e5e5e5)"/>
            <path fill="#fff" d="M-89.143 0h428.571v928H-89.143V0z" style="fill:var(--color2, #fff)"/>
            <path d="M-89.143 0h428.571v928H-89.143V0z" style="fill:var(--color3, #000)"/>
            <path d="M0-2.286h250.286a5.767 5.767 0 0 0-4.177 5.354l-.032 1.003c0 15.425-12.505 27.929-27.93 27.929H32.14C16.715 32 4.211 19.496 4.211 4.071l-.033-1.003A5.767 5.767 0 0 0 .001-2.286zM264.762 20.19h-1.143c-.632 0-1.143.512-1.143 1.143v9.905c0 .631.511 1.143 1.143 1.143h1.143c.631 0 1.143-.512 1.143-1.143v-9.905c0-.631-.512-1.143-1.143-1.143zm-6.476 2.667h1.143c.631 0 1.143.512 1.143 1.143v7.238c0 .631-.512 1.143-1.143 1.143h-1.143a1.143 1.143 0 0 1-1.143-1.143V24c0-.631.512-1.143 1.143-1.143zm-4.191 2.667h-1.143c-.631 0-1.143.512-1.143 1.143v4.571c0 .631.512 1.143 1.143 1.143h1.143c.632 0 1.143-.512 1.143-1.143v-4.571c0-.631-.511-1.143-1.143-1.143zm-5.333 2.285h-1.143c-.632 0-1.143.512-1.143 1.143v2.286c0 .631.511 1.143 1.143 1.143h1.143c.631 0 1.143-.512 1.143-1.143v-2.286c0-.631-.512-1.143-1.143-1.143z" style="fill:var(--color3, #000)"/>
        </symbol>
        <symbol id="icon-Right-Side" viewBox="0 0 181 32">
            <path fill="none" stroke="#000" stroke-width="2.667" d="M116 8a5.778 5.778 0 0 1 5.778-5.778h44.444A5.778 5.778 0 0 1 172 8v16a5.778 5.778 0 0 1-5.778 5.778h-44.444A5.778 5.778 0 0 1 116 24V8z" opacity=".35" style="stroke:var(--color3, #000)"/>
            <path d="M176 10.667v10.667a5.786 5.786 0 0 0 0-10.666z" opacity=".4" style="fill:var(--color3, #000)"/><path d="M120 9.778a3.556 3.556 0 0 1 3.555-3.556h40.889a3.556 3.556 0 0 1 3.555 3.556v12.444a3.556 3.556 0 0 1-3.555 3.556h-40.889A3.556 3.556 0 0 1 120 22.222V9.778zM80.881 6.955a23.043 23.043 0 0 1 15.875 6.342.821.821 0 0 0 1.155-.009l3.083-3.111a.858.858 0 0 0-.007-1.217c-11.24-10.772-28.973-10.772-40.213 0a.86.86 0 0 0-.008 1.216l3.084 3.111a.82.82 0 0 0 1.155.009 23.042 23.042 0 0 1 15.877-6.342zm0 10.121a13.09 13.09 0 0 1 8.784 3.386.827.827 0 0 0 1.155-.015l3.079-3.111a.862.862 0 0 0-.012-1.224c-7.329-6.817-18.678-6.817-26.006 0a.856.856 0 0 0-.011 1.224l3.078 3.111a.827.827 0 0 0 1.155.015 13.087 13.087 0 0 1 8.778-3.386zm6.168 6.811a.839.839 0 0 1-.25.615l-5.326 5.375a.83.83 0 0 1-1.182 0l-5.327-5.375a.835.835 0 0 1 .026-1.219 9.125 9.125 0 0 1 11.785 0 .835.835 0 0 1 .275.604zM44.445 1.778h-2.667a2.667 2.667 0 0 0-2.667 2.667v23.111a2.667 2.667 0 0 0 2.667 2.667h2.667a2.667 2.667 0 0 0 2.667-2.667V4.445a2.667 2.667 0 0 0-2.667-2.667zM29.334 8h2.667a2.667 2.667 0 0 1 2.667 2.667v16.889a2.667 2.667 0 0 1-2.667 2.667h-2.667a2.667 2.667 0 0 1-2.667-2.667V10.667A2.667 2.667 0 0 1 29.334 8zm-9.778 6.222h-2.667a2.667 2.667 0 0 0-2.667 2.667v10.667a2.667 2.667 0 0 0 2.667 2.667h2.667a2.667 2.667 0 0 0 2.667-2.667V16.889a2.667 2.667 0 0 0-2.667-2.667zM7.111 19.555H4.444a2.667 2.667 0 0 0-2.667 2.667v5.333a2.667 2.667 0 0 0 2.667 2.667h2.667a2.667 2.667 0 0 0 2.667-2.667v-5.333a2.667 2.667 0 0 0-2.667-2.667z" style="fill:var(--color3, #000)"/>
        </symbol>
    </defs>
</svg>